<svg width="242" height="174" viewBox="0 0 242 174" fill="none" xmlns="http://www.w3.org/2000/svg">
<circle cx="121" cy="41" r="41" fill="white"/>
<path d="M178.5 156.5C178.5 156.5 179.474 157.432 176.509 146.028C173.544 134.623 169.198 124.261 163.719 115.532C158.241 106.803 151.737 99.8793 144.578 95.1553C137.42 90.4314 129.748 88 122 88C114.252 88 106.58 90.4314 99.4217 95.1553C92.2635 99.8793 85.7594 106.803 80.2808 115.532C74.8021 124.261 67.965 144.095 65 155.5C76 167.5 109.5 173.5 119 173.5H124.5L135.5 172.5L148 169.5L160 165.5L178.5 156.5Z" fill="white"/>
<circle cx="39.5" cy="55.5" r="28.5" fill="white"/>
<path d="M79.8922 137.07C79.8922 137.07 80.5778 137.724 78.4907 129.721C76.4037 121.718 73.3446 114.446 69.4882 108.321C65.6318 102.195 61.0536 97.3363 56.0149 94.0213C50.9763 90.7062 45.5759 89 40.1221 89C34.6683 89 29.268 90.7062 24.2293 94.0213C19.1907 97.3363 14.6125 102.195 10.7561 108.321C6.89966 114.446 2.08707 128.365 0 136.368C7.74286 144.789 31.3235 149 38.0104 149H41.8818L49.6247 148.298L58.4234 146.193L66.8701 143.386L79.8922 137.07Z" fill="white"/>
<circle cx="201.5" cy="55.5" r="28.5" fill="white"/>
<path d="M241.892 137.07C241.892 137.07 242.578 137.724 240.491 129.721C238.404 121.718 235.345 114.446 231.488 108.321C227.632 102.195 223.054 97.3363 218.015 94.0213C212.976 90.7062 207.576 89 202.122 89C196.668 89 191.268 90.7062 186.229 94.0213C181.191 97.3363 176.612 102.195 172.756 108.321C168.9 114.446 164.087 128.365 162 136.368C169.743 144.789 193.323 149 200.01 149H203.882L211.625 148.298L220.423 146.193L228.87 143.386L241.892 137.07Z" fill="white"/>
</svg>
